<?xml version="1.0" encoding="UTF-8"?>
<svg fill="#fa0c00" viewBox="0 0 54.424 14.34" xmlns="http://www.w3.org/2000/svg">
<path d="m5.9961 0h-5.9961v14.34z"/>
<path d="m10.215 0h5.9883v14.34z"/>
<path d="m8.1055 5.2852 3.8164 9.0547h-2.5039l-1.1406-2.8828h-2.793z"/>
<path d="m25.985 9.1192 0.70703 2.0273c0.02344 0.05078 0.05859 0.07422 0.12109 0.07422h1.3594c0.07422 0 0.08594-0.03516 0.07422-0.10938l-2.8086-7.8008c-0.01172-0.0625-0.02344-0.074219-0.08594-0.074219h-1.6875c-0.04687 0-0.07422 0.035156-0.07422 0.085937-0.02344 0.41016-0.05859 0.53516-0.10938 0.65625l-2.5039 7.1211c-0.01172 0.08594 0.01563 0.12109 0.08594 0.12109h1.2148c0.07422 0 0.10938-0.02344 0.13672-0.09766l0.66797-2.0039zm-2.5156-1.3242c0.36719-1.1094 0.85156-2.5312 1.0469-3.3438h0.01172c0.24219 0.85156 0.8125 2.5391 1.0703 3.3438z"/>
<path d="m31.858 11.342c0.73047 0 1.5078-0.13281 2.2969-0.47266 0.0625-0.02344 0.07422-0.05078 0.07422-0.10938-0.02344-0.21875-0.05078-0.53516-0.05078-0.77734v-7.3438c0-0.046875 0-0.070313-0.05859-0.070313h-1.3242c-0.05078 0-0.07422 0.023438-0.07422 0.085938v2.4883c-0.20704-0.023438-0.35157-0.035156-0.52344-0.035156-2.1367 0-3.4492 1.4102-3.4492 3.1719 0 2.043 1.3477 3.0625 3.1094 3.0625zm0.86328-1.3594c-0.21875 0.070312-0.46094 0.097656-0.70703 0.097656-0.96875 0-1.7617-0.54688-1.7617-1.875 0-1.1758 0.81641-1.8711 1.8984-1.8711 0.21875 0 0.41016 0.023438 0.57031 0.085938z"/>
<path d="m38.453 5.1075c-1.8242 0-2.9531 1.3984-2.9531 3.125 0 1.543 0.89844 3.1094 2.9258 3.1094 1.7148 0 2.918-1.2617 2.918-3.1484 0-1.6641-1.0195-3.0859-2.8906-3.0859zm-0.07422 1.2266c1.0312 0 1.4688 0.88672 1.4688 1.8984 0 1.25-0.64453 1.8711-1.3945 1.8711-0.92578 0-1.4727-0.77734-1.4727-1.8984 0-1.1523 0.58203-1.8711 1.3984-1.8711z"/>
<path d="m42.713 2.5684c-0.05078 0-0.08594 0.023438-0.08594 0.085938v8.3125c0 0.03516 0.03516 0.09766 0.08594 0.10938 0.58203 0.17969 1.1914 0.26562 1.8203 0.26562 1.8008 0 3.5508-1.1172 3.5508-3.3672 0-1.6289-1.1172-2.8672-2.8672-2.8672-0.40234 0-0.77734 0.0625-1.1055 0.17188l-0.015625-2.6133c0-0.085937-0.02344-0.097656-0.10938-0.097656zm3.875 5.5547c0 1.3477-0.92188 1.9805-1.918 1.9805-0.20703 0-0.39062-0.01172-0.55859-0.0625v-3.5469c0.19141-0.074218 0.42188-0.13672 0.84766-0.13672 0.96094 0 1.6289 0.60938 1.6289 1.7656z"/>
<path d="m53.026 8.5606c0.59375 0 1.082-0.011719 1.25-0.050782 0.0625-0.011718 0.08594-0.035156 0.09766-0.085937 0.03516-0.13281 0.05078-0.41016 0.05078-0.75 0-1.1562-0.69531-2.5664-2.4922-2.5664-1.8359 0-2.8555 1.4961-2.8555 3.1836 0 1.4961 0.78906 3.0508 3 3.0508 0.82812 0 1.3633-0.13281 1.8242-0.35156 0.04687-0.02344 0.07031-0.0625 0.07031-0.13281v-1.0117c0-0.058594-0.03516-0.070313-0.07031-0.046875-0.46094 0.19531-0.96094 0.29297-1.5078 0.29297-1.2383 0-1.8008-0.68359-1.8359-1.5312zm-2.4688-1.0469c0.09766-0.59375 0.47266-1.2383 1.3125-1.2383 0.92578 0 1.168 0.77734 1.168 1.1289v0.097656c-0.05078 0.011719-0.20703 0.011719-0.66797 0.011719z"/>
</svg>
