<?xml version="1.0" encoding="UTF-8"?>
<svg viewBox="0 0 1858 1063" xmlns="http://www.w3.org/2000/svg">
<path d="m526.8 462.73-209.43-461.93h-108.9l-206.96 458.04-1.4783 3.894h115.8l40.9-97.838h210.9l40.9 97.838h118.26zm-195.14-183.51h-138.47l69.48-165.01 68.987 165.01z"/>
<path d="m748.58 462.99 149.54-356.64h-103.75l-98.877 234.83-95.467-234.83h-111.05l149.12 356.64h110.49z"/>
<path d="m1219.7 140.47c-29.72-26.31-72.09-39.464-127.13-39.464-28.25 0-56.5 3.898-83.29 11.206-26.792 7.308-50.172 18.026-69.655 31.668l-1.948 1.462 38.966 76.004 2.435-1.949c12.177-9.744 27.272-17.539 45.302-23.386 17.53-5.846 36.04-8.77 54.55-8.77 26.3 0 45.78 5.847 58.94 17.053 12.17 10.718 18.99 26.796 19.48 46.772h-78.42c-51.63 0-90.597 9.744-115.44 28.745-25.328 19.001-37.992 45.797-37.992 78.927 0 20.95 5.357 39.951 16.073 56.516s26.302 29.72 46.273 38.977c19.974 9.257 43.834 14.129 71.114 14.129 48.71 0 83.78-14.129 104.23-42.875v37.515h100.83v-203.16c0-52.618-15.1-93.056-44.32-119.36zm-90.11 242.14c-13.16 7.796-28.25 11.693-44.82 11.693-17.04 0-30.68-3.897-40.42-10.718-9.74-7.308-14.13-16.565-14.13-28.745 0-25.822 19.48-38.49 59.91-38.49h66.73v32.643c-5.36 14.616-14.61 25.822-27.27 33.617z"/>
<path d="m0.029302 567.04h111.05v379.27h351.3v111.05h-351.3v0.13h-111.05v-0.13l-4.8e-6 -111.05 4.8e-6 -379.27z" clip-rule="evenodd" fill-rule="evenodd"/>
<path d="m818.86 734.86c-29.712-26.309-72.088-39.463-127.13-39.463-28.25 0-56.501 3.897-83.29 11.205-26.79 7.308-50.169 18.027-69.653 31.669l-1.948 1.461 38.966 76.004 2.436-1.949c12.177-9.744 27.276-17.539 45.298-23.385 17.535-5.847 36.044-8.77 54.553-8.77 26.302 0 45.785 5.846 58.937 17.052 12.177 10.719 18.996 26.796 19.483 46.772h-78.42c-51.63 0-90.597 9.744-115.44 28.745-25.328 19.001-37.992 45.797-37.992 78.927 0 20.95 5.358 39.951 16.074 56.514 10.716 16.57 26.302 29.72 46.272 38.98 19.971 9.26 43.837 14.13 71.114 14.13 48.708 0 83.777-14.13 104.24-42.88v37.52h100.82v-203.17c0-52.619-14.612-93.057-44.324-119.37zm-90.11 242.14c-13.151 7.796-28.25 11.693-44.811 11.693-17.048 0-30.686-3.897-40.428-10.718-9.741-7.308-14.125-16.565-14.125-28.745 0-25.822 19.483-38.49 59.911-38.49h67.217v32.643c-5.845 14.616-15.1 25.822-27.764 33.617z"/>
<path d="m1239 718.29c-27.28-15.103-57.47-22.899-90.6-22.899-42.86 0-77.44 13.155-103.26 38.49v-166.62h-107.16v489.65h102.78v-36.06c25.33 27.29 61.86 41.42 107.64 41.42 33.13 0 63.32-7.8 90.6-22.9 27.28-15.11 48.71-37.03 63.81-64.314 15.58-27.284 23.38-59.927 23.38-96.467 0-36.541-7.8-68.696-23.38-96.467-15.59-26.796-37.02-48.721-63.81-63.824zm-108.13 66.26c25.33 0 46.27 8.77 62.34 25.822 16.08 17.052 24.36 40.438 24.36 69.183s-8.28 52.131-24.36 69.184c-16.07 17.052-37.01 25.822-62.34 25.822s-46.27-8.77-62.35-25.822c-16.07-17.053-24.35-40.439-24.35-69.184s8.28-52.131 24.35-69.183c16.08-17.052 37.02-25.822 62.35-25.822z"/>
<path d="m1665.7 886.38c-13.64-14.616-30.2-24.847-48.71-30.206-18.5-5.36-41.88-10.719-70.62-15.591-25.33-3.898-44.33-7.795-55.53-12.18-10.71-3.898-16.07-10.719-16.07-20.463 0-8.77 4.87-15.59 15.1-20.95 10.23-5.846 26.3-8.769 47.73-8.769 36.04 0 69.65 8.769 99.85 25.821l2.44 1.462 36.04-77.466-1.95-1.461c-16.07-9.744-37.01-17.54-61.86-22.899-24.84-5.359-49.68-8.282-74.52-8.282-33.61 0-63.32 4.872-88.16 14.616s-44.32 23.386-57.48 40.925c-13.15 17.539-19.97 38.002-19.97 60.901 0 27.283 7.31 48.233 21.44 63.337 14.12 14.616 30.68 24.847 49.68 30.694 18.51 5.846 42.86 10.718 71.6 15.103 23.86 2.923 41.89 6.821 53.58 10.719 10.71 3.897 16.07 10.231 16.07 19.001 0 19.488-20.94 29.232-61.86 29.232-20.94 0-42.86-2.923-64.29-9.257-21.92-6.334-40.92-14.129-56.02-24.36l-2.43-1.462-36.05 77.956 1.95 1.46c16.56 11.2 39.46 20.46 67.22 27.28 27.76 7.31 56.99 10.72 86.21 10.72 34.58 0 64.78-4.87 90.11-14.13 25.33-9.25 44.81-22.9 58.45-40.44 13.15-17.536 19.97-37.511 19.97-59.923-0.97-25.822-8.28-46.771-21.92-61.388z"/>
<path d="m1857.2 950.63h-107.16v107.19h107.16v-107.19z"/>
</svg>
