<svg enable-background="new 0 0 30 30" version="1.1" viewBox="0 0 30 30" xml:space="preserve" xmlns="http://www.w3.org/2000/svg">
<path d="m8.7 5.6c0.9 0 1.7 0.1 2.4 0.3 0.8 0.1 1.4 0.3 1.9 0.7 0.5 0.3 0.9 0.8 1.2 1.4s0.4 1.3 0.4 2.1c0 0.9-0.2 1.7-0.7 2.3-0.4 0.6-1.1 1.1-1.9 1.5 1.1 0.3 2 0.9 2.5 1.7s0.9 1.8 0.9 2.9c0 0.9-0.2 1.7-0.5 2.4s-0.9 1.3-1.5 1.7-1.3 0.7-2.1 0.9c-0.8 0.3-1.6 0.5-2.4 0.5h-8.9v-18.4h8.7zm-0.5 7.4c0.7 0 1.3-0.2 1.8-0.5s0.7-0.9 0.7-1.7c0-0.4-0.1-0.8-0.2-1.1s-0.3-0.5-0.6-0.7c-0.3 0-0.6-0.2-0.9-0.2s-0.7-0.1-1.1-0.1h-3.8v4.3h4.1zm0.2 7.9c0.4 0 0.8-0.1 1.1-0.1s0.7-0.2 0.9-0.4c0.3-0.2 0.5-0.4 0.7-0.7 0.1-0.3 0.3-0.7 0.3-1.2 0-0.9-0.3-1.6-0.8-2.1-0.5-0.4-1.3-0.6-2.1-0.6h-4.4v5.1h4.3zm12.8-0.1c0.5 0.5 1.3 0.8 2.4 0.8 0.7 0 1.4-0.2 1.9-0.5 0.5-0.4 0.9-0.8 1-1.2h3.3c-0.5 1.6-1.3 2.7-2.4 3.5-1.1 0.7-2.3 1.1-3.9 1.1-1.1 0-2-0.2-2.9-0.5s-1.5-0.8-2.1-1.5c-0.6-0.6-1.1-1.3-1.3-2.2-0.3-0.9-0.5-1.8-0.5-2.9 0-1 0.1-1.9 0.5-2.8 0.3-0.9 0.8-1.6 1.4-2.3 0.6-0.6 1.3-1.1 2.1-1.5 0.9-0.3 1.7-0.5 2.8-0.5s2.1 0.2 3 0.7 1.5 1 2.1 1.8c0.5 0.7 0.9 1.6 1.2 2.5 0.1 0.9 0.2 1.9 0.1 2.9h-9.7c0.1 1.1 0.5 2.1 1 2.6zm4.2-7c-0.5-0.5-1.2-0.7-2.1-0.7-0.6 0-1.1 0.1-1.5 0.3s-0.7 0.5-0.9 0.7-0.4 0.6-0.5 0.9-0.1 0.6-0.1 0.9h6c-0.1-0.9-0.4-1.6-0.9-2.1zm-5.8-7h7.4v1.8h-7.5l0.1-1.8z"/>
</svg>
