<svg xmlns="http://www.w3.org/2000/svg" viewBox="0 0 226.772 124.724" xmlns:v="https://vecta.io/nano"><path d="M191.553 117.581l-1.599.19c-11.727 1.851-23.173-6.973-24.319-18.759-.629-6.466.931-12.321 5.197-17.279 3.128-3.636 7.375-5.44 11.975-6.277 7.218-1.313 13.624.516 19.021 5.552 1.835 1.713 3.119 3.797 3.729 6.261.053.214.129.424.214.628.022.054.116.078.302.195l.954-1.286 11.624-15.35c1.038-1.354 1.298-1.324 2.657-.33l4.601 3.389c1.097.816 1.121.982.233 2.014-7.216 8.381-13.42 17.452-18.589 27.228a143.66 143.66 0 0 0-8.343 18.917c-.636 1.783-1.029 1.923-2.668.97-1.485-.863-2.945-1.774-4.465-2.569-1.028-.538-1.321-1.215-.86-2.267.138-.32.189-.679.336-1.227zm-4.586-8.728c7.008-.018 12.347-5.427 12.329-12.492-.017-6.653-5.644-12.205-12.362-12.199-6.975.007-12.353 5.461-12.332 12.507.02 6.671 5.633 12.201 12.365 12.184zM94.96 42.911c-11.915-.002-21.473-9.591-21.464-21.534C73.505 9.574 83.16-.014 95.024 0c11.921.014 21.467 9.607 21.444 21.551-.023 11.859-9.591 21.361-21.508 21.36zm12.37-21.421c.003-6.813-5.504-12.325-12.324-12.333-6.779-.009-12.402 5.574-12.394 12.306.007 6.74 5.584 12.322 12.367 12.38 6.704.056 12.347-5.588 12.351-12.353zm33.184 48.941l-.912-.267c-7.672-1.856-13.035-7.882-13.553-15.745-.386-5.849 1.673-10.996 5.626-15.341 2.753-3.026 5.796-5.702 9.408-7.697 2.908-1.606 5.781-3.276 8.641-4.966.979-.578 1.685-.485 2.421.403 1.24 1.494 2.569 2.913 3.851 4.373.953 1.086.824 1.586-.444 2.342-4.358 2.598-8.771 5.112-13.028 7.867-3.643 2.358-6.053 5.702-6.889 10.068-1.002 5.234 2.345 11.008 7.19 12.136 3.585.835 6.61-.525 9.266-2.821l15.628-13.621c1.181-1.031 1.566-1.012 2.58.132l3.566 4.025c1.052 1.193 1.035 1.519-.16 2.561l-24.916 21.724-3.543 3.099c-.761.683-1.427.677-2.108-.116l-3.977-4.559c-.772-.895-.74-1.347.171-2.157.438-.389.945-.7 1.42-1.046l-.238-.394zM0 73.024c.097-10.458 7.729-19.43 18.017-21.121 1.35-.222 1.83.158 1.75 1.513l-.471 6.477c-.059.932-.66 1.208-1.421 1.469-4.713 1.619-7.59 4.868-8.507 9.78-1.211 6.488 3.534 13.123 10.083 14.125 4.927.754 8.955-.926 11.928-4.821s3.326-8.206 1.272-12.666c-.405-.879-.332-1.506.422-2.162 1.436-1.25 2.804-2.579 4.201-3.874s1.785-1.233 2.783.439c7.335 12.281.633 28.301-13.294 31.776C14.305 97.067 1.871 88.555.259 75.808.142 74.884.085 73.952 0 73.024zm62.724-24.756c-.293.337-.551.745-.909 1.026l-4.542 3.471c-1.175.883-1.68.763-2.345-.544-5.431-10.665-11.951-20.619-19.912-29.559-4.043-4.54-8.474-8.735-12.752-13.064-1.01-1.021-1.057-1.11-.027-2.102l4.288-4.111c.938-.886 1.317-.88 2.29-.006 13.916 12.5 25.091 27.087 33.428 43.833.146.299.275.605.481 1.056z"/></svg>