<svg version="1.1" xmlns="http://www.w3.org/2000/svg" xmlns:xlink="http://www.w3.org/1999/xlink" x="0px" y="0px"
	 viewBox="0 0 30 30" style="enable-background:new 0 0 30 30;" xml:space="preserve">
	<path class="st0" d="M15,30C6.7,30,0,23.3,0,15C0,6.7,6.7,0,15,0c8.3,0,15,6.7,15,15C30,23.3,23.3,30,15,30L15,30z M27.7,17.1
	c-0.4-0.1-4-1.2-8-0.5c1.7,4.6,2.4,8.3,2.5,9.1C25,23.7,27.1,20.6,27.7,17.1L27.7,17.1z M20,26.8c-0.2-1.1-0.9-5-2.7-9.7
	c0,0-0.1,0-0.1,0c-7.2,2.5-9.8,7.5-10.1,8c2.2,1.7,4.9,2.7,7.9,2.7C16.8,27.8,18.5,27.5,20,26.8L20,26.8z M5.5,23.6
	c0.3-0.5,3.8-6.3,10.4-8.4c0.2-0.1,0.3-0.1,0.5-0.2c-0.3-0.7-0.7-1.5-1-2.2C9,14.7,2.8,14.6,2.2,14.6c0,0.1,0,0.3,0,0.4
	C2.2,18.3,3.4,21.3,5.5,23.6L5.5,23.6z M2.5,12.4c0.6,0,5.9,0,11.8-1.6c-2.1-3.8-4.4-6.9-4.8-7.4C6,5.1,3.3,8.4,2.5,12.4L2.5,12.4z
	 M12,2.6c0.4,0.5,2.7,3.6,4.8,7.5c4.6-1.7,6.5-4.3,6.7-4.6c-2.3-2-5.2-3.2-8.5-3.2C14,2.2,13,2.3,12,2.6L12,2.6z M24.9,6.9
	c-0.3,0.4-2.4,3.1-7.2,5c0.3,0.6,0.6,1.2,0.9,1.9c0.1,0.2,0.2,0.4,0.3,0.7c4.3-0.5,8.5,0.3,8.9,0.4C27.8,11.9,26.7,9.1,24.9,6.9
	L24.9,6.9z"/>
</svg>