<svg xmlns="http://www.w3.org/2000/svg" viewBox="0 0 812.1 150.4" fill="#fff" xmlns:v="https://vecta.io/nano"><path d="M610.4 42.6l12.8 35.1-26.4.1 13.6-35.2zm10.9-35.1h-21.6l-59.2 135.9H571l17.6-42.1h43.7l17.9 42.1h30.9L622.5 7.5h-1.2 0 0zm-89.3 0h-36.8l-34.4 89.2-34-89.2h-39v135.9h26.1V41.2l37.4 102.1h19.1l37.4-102.1v102.1h26.1V7.5H532zM258.9 75.1c0-24.9 20.1-45.2 44.8-45.2s44.8 20.3 44.8 45.2-20.1 45.2-44.8 45.2-44.8-20.2-44.8-45.2h0zm-26.6 0c0 39.7 32.1 72 71.4 72s71.4-32.3 71.4-72-32.1-72-71.4-72-71.4 32.3-71.4 72zm-99.9-28.6c0 27.8 21.3 34.7 38.4 40.3 13.6 4.4 24.4 7.9 24.4 19.3 0 10.5-11 16.3-21.3 16.3s-19.3-4.9-24.6-13l-1.2-1.9-20.6 20 1.1 1.3c12.9 15.4 31.5 18.6 44.8 18.6 30.5 0 50.3-17.3 50.3-44 0-28.2-21.8-35.2-39.4-40.9-14.6-4.7-23.4-8-23.4-17.6 0-11.2 10.2-15.1 19.8-15.1s17.3 3.6 21.7 9.6l1.3 1.8 20-21.1-1.4-1.3C209.9 7.1 194.1 4.7 183.1 4.7c-25.3 0-50.7 12.9-50.7 41.8h0 0zm-18-39H16.7v135.8h102.9v-24.9H44V86.2h67.3v-25H44V32.5h72.3v-25zm621.4 23.9c9.3 0 24.9 2.9 24.9 22 0 15.5-8.5 22.8-26.9 22.8h-16.5V31.4h18.5 0zM691.9 7.5h-1.8v135.9h27.3V100l16.4-.2c1.1 1.6 28.6 43.5 28.6 43.5h33.1l-33.9-47.2c18.9-6.7 27.6-26.4 27.6-42.6 0-27.6-26.5-46.1-51.2-46.1l-46.1.1h0z"/></svg>