<?xml version="1.0" encoding="UTF-8"?>
<svg class="chakra-icon css-e27ydl" fill="none" focusable="false" viewBox="0 0 120 30" xmlns="http://www.w3.org/2000/svg">
<path d="m9.2656 0.51721h8.2406v18.709h-4.225v-15.066h-4.0156v-3.6437zm104.47 22.669c3.794 0 6.266-1.9937 6.266-5.0468 0-4.3326-3.145-4.7557-5.716-5.1016-1.778-0.2392-3.281-0.4414-3.281-1.8734 0-1.0938 0.931-1.7344 2.347-1.7344 1.253 0 2.637 0.7719 2.859 2.2812h3.6c-0.159-3.1468-2.762-5.2374-6.553-5.2374-3.34 0-5.815 1.9906-5.815 4.8188 0 3.9675 2.98 4.4796 5.486 4.9102 1.816 0.3121 3.382 0.5812 3.382 2.0929 0 0.9625-1.028 1.7344-2.568 1.7344-1.769 0-2.957-0.9625-3.119-2.5063h-3.6l-3e-3 0.0032c0.193 3.475 2.922 5.6593 6.715 5.6593zm-33.5 1e-4c3.9844 0 7.0031-2.2156 7.6156-5.6531h-3.8531c-0.4188 1.5406-1.7344 2.3781-3.7594 2.3781-2.5062 0-4.1781-1.6719-4.4687-4.275h11.953c0.0313-0.3219 0.0625-0.8031 0.0625-1.35 0-3.8563-2.5688-7.8094-7.8719-7.8094s-7.9375 4.05-7.9375 8.2906c0 4.2407 2.9563 8.4188 8.2594 8.4188zm-0.3219-13.753c2.3469 0 3.7594 1.5437 3.9188 3.6h-7.9688c0.4188-2.4438 1.8344-3.6 4.05-3.6zm-17.044 13.753c-1.9594 0-3.6938-0.7719-4.5938-2.025v8.3219h-3.9187v-22.747h3.9187v2.025c0.9625-1.3812 2.7313-2.2812 4.8844-2.2812 4.6594 0 7.5187 3.4031 7.5187 8.3531 0 4.9469-3.0531 8.3531-7.8093 8.3531zm3.8906-8.3531c0-2.9875-1.7344-4.95-4.3375-4.95s-4.4 1.9625-4.4 4.95 1.7344 4.95 4.4 4.95 4.3375-1.9625 4.3375-4.95zm-47.675 0.0126c0-4.7969 3.5187-8.3156 8.4437-8.3156s8.4094 3.5188 8.4094 8.3188c0 4.7969-3.5156 8.3125-8.4094 8.3125-4.8937 0-8.4437-3.5156-8.4437-8.3156zm3.9625 0.0031c0 2.9094 1.7906 4.925 4.4781 4.925s4.4469-2.0156 4.4469-4.925-1.7906-4.925-4.4469-4.925c-2.6562 0-4.4781 2.0125-4.4781 4.925zm17.684 0.7999c0.2875 2.5907 1.95 4.2532 4.4469 4.2532 2.0156 0 3.3281-0.8313 3.7437-2.3688h3.8375c-0.6062 3.4219-3.6156 5.6313-7.5812 5.6313-5.2781 0-8.2219-4.1594-8.2219-8.3813s2.6219-8.25 7.9-8.25c5.275 0 7.8344 3.9344 7.8344 7.7719 0 0.5437-0.0313 1.025-0.0625 1.3437h-11.897zm8.0281-2.5937c-0.1593-2.0469-1.5656-3.5812-3.9-3.5812-2.2093 0-3.6156 1.15-4.0312 3.5812h7.9312zm-35.475 6.1719h-6.4782v3.6438h6.4782v-3.6438zm88.403 1.9031c-0.8 1.2531-2.6651 2.0562-4.6901 2.0562-4.8844 0-7.7125-3.4031-7.7157-8.3531 0-4.9469 2.8282-8.3531 7.6469-8.3531 2.025 0 3.7909 0.83437 4.7219 2.0875v-1.8312h3.953v17.091c0 3.3718-2.441 5.6531-6.0718 5.6531h-8v-3.1469h7.4563c1.5745 0 2.6995-1.1875 2.6995-2.8906v-2.3125zm0.257-6.2969c0-2.9875-1.735-4.95-4.4003-4.95-2.6687 0-4.3375 1.9594-4.3375 4.95 0 2.9875 1.7032 4.95 4.3375 4.95 2.6313 0 4.4003-1.9625 4.4003-4.95zm-98.819 0.7187h3.6781v3.6782h-3.6781v-3.6782zm-0.55-3.1249h-2.575v2.575h2.575v-2.575z" clip-rule="evenodd" fill="current" fill-rule="evenodd"/>
</svg>
