<svg viewBox="0 0 1920 794" xmlns="http://www.w3.org/2000/svg"><path d="M128.2,53v687.8h1663.6V53H128.2ZM554.2,675.5l-80-116.6-98.6-143.9v260.5h-194.6V115.7h194.6v244.9l98.6-143.8,69.3-101.1h234.6l-186.6,272.2,197.3,287.7h-234.6ZM1006.7,688.9c-170.4,0-308.6-130.7-308.6-291.9S836.3,105,1006.7,105s308.6,130.7,308.6,291.9-138.2,291.9-308.6,291.9ZM1739.1,303.5c-22.2-4.2-46.5-4.2-49.6-4.2-83.4,0-144.7,37-144.7,142.6v232.3h-201.7V110.3h199.6v81.3h1.1c45.4-76,124.6-86.6,158.4-86.6s23.2,1.1,37,4.2v194.3Z"/><path d="m1006.7 283.6c-62.6 0-113.3 50.7-113.3 113.3s50.7 113.3 113.3 113.3 113.3-50.7 113.3-113.3-50.7-113.3-113.3-113.3z"/></svg>
