<?xml version="1.0" encoding="UTF-8"?>
<svg class="w-48 max-w-full text-black fill-current" width="145" data-v-4072b946="" viewBox="0 0 200 22" xmlns="http://www.w3.org/2000/svg">
<path d="M37.04 14.394L24.324 2.11h-3.545v19.102h3.626V8.631L37.5 21.212h3.166V2.11H37.04v12.284zm18.02 6.818h4.03V5.601h7.36V2.11H47.7V5.6h7.36v15.611zm16.369-8.279h11.2v8.28h4.032V2.11H82.63v7.333H71.429V2.11h-4.005v19.102h4.005v-8.28zm22.862 3.517h9.091l2.706 4.762h4.031L100.568 2.11h-3.057l-9.145 19.102H92.1l2.191-4.762zm4.437-8.793l3.572 6.142h-6.98l3.408-6.142zm17.885 13.555h4.004V5.601h7.386V2.11h-18.777V5.6h7.387v15.611zM142.397 2.11l-9.145 19.102h3.761l2.192-4.762h9.09l2.706 4.762h4.031l-9.55-19.102h-3.085zm-2.191 11.662l3.409-6.142 3.571 6.142h-6.98zm31.114-2.895c-1.19-.73-2.949-1.19-5.276-1.353l-2.705-.217c-1.705-.135-2.895-.324-3.545-.54-.649-.217-1.001-.623-1.001-1.191 0-.839.677-1.488 2.002-1.921.893-.325 1.894-.487 3.031-.487 1.325 0 2.624.19 3.923.568 1.299.379 2.408.947 3.328 1.677l1.704-2.868c-1.921-1.19-3.571-1.948-4.951-2.326-1.407-.352-2.733-.542-4.031-.542-2.354 0-4.329.487-5.926 1.489-1.704 1.109-2.57 2.705-2.57 4.816 0 .92.189 1.785.568 2.57.379.785.92 1.407 1.596 1.867.542.352 1.191.595 1.921.784.731.19 1.84.325 3.301.433l2.652.244c1.461.108 2.462.27 3.03.433.92.27 1.407.757 1.407 1.46 0 .867-.649 1.489-1.948 1.868-1.001.324-2.11.487-3.355.487a16.08 16.08 0 01-4.194-.541c-1.407-.352-2.57-.812-3.517-1.353l-1.218 2.868c3.031 1.704 6.007 2.516 8.956 2.462 2.787 0 5.006-.541 6.656-1.596 1.65-1.137 2.489-2.679 2.489-4.6 0-1.055-.27-2.03-.812-2.895a4.728 4.728 0 00-1.515-1.596zm18.859 0c-1.191-.73-2.949-1.19-5.276-1.353l-2.706-.217c-1.704-.135-2.895-.324-3.544-.54-.65-.217-1.001-.623-1.001-1.191 0-.839.676-1.488 2.002-1.921.893-.325 1.894-.487 3.03-.487 1.326 0 2.625.19 3.923.568 1.299.379 2.408.947 3.328 1.677l1.705-2.868c-1.921-1.19-3.572-1.948-4.952-2.326-1.406-.352-2.732-.542-4.031-.542-2.354 0-4.329.487-5.925 1.489-1.705 1.109-2.571 2.705-2.571 4.816 0 .92.19 1.785.569 2.57a4.669 4.669 0 001.596 1.867c.541.352 1.19.595 1.921.784.73.19 1.84.325 3.301.433l2.651.244c1.461.108 2.462.27 3.031.433.919.27 1.406.757 1.406 1.46 0 .867-.649 1.489-1.948 1.868-1.001.324-2.11.487-3.355.487-1.379 0-2.786-.163-4.193-.541-1.407-.352-2.571-.812-3.518-1.353l-1.217 2.868c3.03 1.704 6.006 2.516 8.956 2.462 2.786 0 5.005-.541 6.655-1.596 1.651-1.137 2.49-2.679 2.49-4.6 0-1.055-.271-2.03-.812-2.895a4.499 4.499 0 00-1.515-1.596zM197.376 0a2.627 2.627 0 00-2.625 2.624 2.627 2.627 0 002.625 2.625A2.627 2.627 0 00200 2.624 2.627 2.627 0 00197.376 0zm0 4.68a2.084 2.084 0 010-4.166 2.084 2.084 0 010 4.167z"/>
<path d="M198.052 3.057c-.054-.08-.162-.162-.27-.243a.73.73 0 00.459-.27c.109-.136.163-.325.163-.542a.83.83 0 00-.108-.46.655.655 0 00-.271-.27c-.108-.054-.298-.082-.568-.082h-1.028v2.923h.487V2.895h.108c.108 0 .189 0 .243.027.055.027.109.054.136.108.054.054.135.19.27.433l.352.65h.568l-.297-.569c-.082-.243-.163-.405-.244-.487zm-.73-.649h-.352v-.73h.379c.216 0 .351 0 .405.027a.555.555 0 01.163.108.51.51 0 01.054.216c0 .108-.027.163-.054.244-.027.054-.081.108-.135.108-.109.027-.244.027-.46.027zM9.93 1.921C4.437 1.921 0 6.385 0 11.851c0 5.492 4.437 9.956 9.93 9.956a9.919 9.919 0 009.93-9.93c0-5.492-4.438-9.956-9.93-9.956zm4.112 17.424h-2.787l-1.352-2.327-1.353 2.327H5.763l2.733-3.652-2.733-3.653H8.55l1.353 2.11 1.352-2.11h2.787l-2.732 3.653 2.732 3.652zm.081-7.684h-2.786L9.984 9.334 8.63 11.661H5.87L8.604 8.01 5.87 4.329h2.787l1.353 2.11 1.353-2.11h2.786l-2.732 3.653 2.705 3.68z"/>
</svg>
