	<svg version="1.1" xmlns="http://www.w3.org/2000/svg" xmlns:xlink="http://www.w3.org/1999/xlink" x="0px" y="0px"
 viewBox="0 0 63 30" style="enable-background:new 0 0 63 30;" xml:space="preserve">
	<path d="M47.7,0c-4.5,0-8.5,2-11.2,5.1c-1.3-1.5-3.1-2.3-5.1-2.3c-2,0-3.9,0.9-5.1,2.4C23.5,2,19.5,0,15,0C6.7,0,0,6.7,0,15
		s6.7,15,15,15c8.3,0,15-6.7,15-15c0-2.8-0.8-5.4-2.1-7.6c0.7-1.2,2-1.9,3.5-1.9c1.4,0,2.7,0.7,3.5,1.9c-1.3,2.2-2.1,4.8-2.1,7.6
		c0,8.3,6.7,15,15,15c8.3,0,15-6.7,15-15S56,0,47.7,0z M27.3,15c0,0.5,0,1-0.1,1.5l-1.3-1.3L23.2,18l-2.7-2.7L17.7,18L15,15.3
		L12.3,18l-2.7-2.7L6.8,18l-2.7-2.7l-1.3,1.3c-0.1-0.5-0.1-1-0.1-1.5c0-0.8,0.1-1.7,0.2-2.4l1.1-1.1l2.7,2.7l2.7-2.7l2.7,2.7l2.7-2.7
		l2.7,2.7l2.7-2.7l2.7,2.7l2.7-2.7l1.1,1.1C27.2,13.3,27.3,14.2,27.3,15z M23.2,9.8l-2.7-2.7l-2.7,2.7L15,7.1l-2.7,2.7L9.5,7.1
		L6.8,9.8L5,8c0.5-0.7,1.1-1.4,1.8-2L6.8,6l0.6-0.6c0.8-0.6,1.7-1.1,2.6-1.6L12.3,6L15,3.3L17.7,6l2.2-2.2c0.9,0.4,1.8,0.9,2.6,1.6
		L23.2,6l0.1-0.1c0.7,0.6,1.3,1.3,1.8,2L23.2,9.8z M22,25l-1.6-1.6l-2.7,2.7L15,23.5l-2.7,2.7l-2.7-2.7L8,25c-1.8-1.3-3.3-3-4.2-5.1
		l0.3-0.3l2.7,2.7l2.7-2.7l2.7,2.7l2.7-2.7l2.7,2.7l2.7-2.7l2.7,2.7l2.7-2.7l0.3,0.3C25.3,22,23.9,23.8,22,25z M40.2,24.7
		c-1.1-0.8-2-1.8-2.7-2.9v-1.6h3.9v-3.9h3.9v-3.9h3.9V8.6h3.9V4.8h1.6c1.1,0.7,2.1,1.7,2.9,2.7h-1.8v3.9h-3.9v3.9h-3.9v3.9h-3.9v3.9
		h-3.9V24.7z M49.9,2.9v2.6H46v3.9h-3.9v3.9h-3.9v3.9h-2.6c-0.1-0.7-0.2-1.4-0.2-2.1c0-0.2,0-0.4,0-0.6h0.1v-1c0.1-1,0.4-2,0.7-2.9
		h3.1V6.7h3.9V3.6c0.9-0.4,1.9-0.6,2.9-0.7h1V2.8c0.2,0,0.4,0,0.6,0C48.5,2.7,49.2,2.8,49.9,2.9z M43.3,26.4V26h3.9v-3.9H51v-3.9h3.9
		v-3.9h3.9v-3.9h0.4c0.5,1.4,0.8,2.9,0.8,4.4c0,0.7-0.1,1.4-0.2,2.1h-2.2V21h-3.9v3.9h-3.9v2.2c-0.7,0.1-1.4,0.2-2.1,0.2
		C46.2,27.3,44.7,27,43.3,26.4z"/>
	</svg>