<svg xmlns="http://www.w3.org/2000/svg" viewBox="0 0 1080 630" xmlns:v="https://vecta.io/nano"><g fill="#010101"><path d="M0 281.6h52.4c5.4 19 13 32.8 22.5 41.5s22 13.1 37.4 13.1 20.5-2.3 27-7.1c6.5-4.7 9.8-11.4 9.8-19.8s-2.7-15.3-8.3-20.6c-5.5-5.3-15.7-11.4-30.7-18.3-19-8.5-35-17.2-48.3-26.2-13.2-9-24-18.7-32.2-29.2-8.3-10.5-14.1-22.4-17.6-35.5-3.5-13.2-5.3-28.1-5.3-44.5s3-38.1 9-54.7 14.4-30.7 25.1-42.7C51.5 25.7 64.4 16.4 79.3 9.9S110.8 0 128.7 0c27 0 50.4 7 70.4 20.9 19.9 14 33.9 33 41.9 56.8 5 15.5 7.5 46.1 7.5 92.1v48.7h-54.7c-7.5-27.9-23.2-41.9-47.2-41.9s-30.7 8.3-30.7 24.7 8 20.7 24 27.7l24.3 10.1 15.7 7.1c4.2 1.9 7.9 3.9 10.9 5.6 3 1.8 6.2 3.7 9.8 5.6 35.9 22.9 53.9 61.2 53.9 114.5s-13.4 81.5-40.4 107c-11.5 11-25 19.6-40.4 25.8-15.5 6.2-31.2 9.4-47.2 9.4-24.4 0-46.9-6.5-67.4-19.4-20.5-13-35.7-30.4-45.7-52.4-5.5-11-9.1-24.1-10.9-39.3s-2.6-37.6-2.6-67v-54.7h0zm282.1-274h101.1c43.4 0 76.8 11.3 100.3 33.7 8 7.5 14.5 15.1 19.4 22.8 5 7.7 9 16.8 11.9 27.3 3 10.5 5 23.3 6 38.5s1.5 34 1.5 56.5l-.8 68.9c-.5 17.5-1.6 31.8-3.4 43-1.8 11.3-4.4 20.3-7.9 27.3s-8 14-13.4 20.9c-7.5 9-15.1 16.6-22.8 22.8s-16.6 11.3-26.6 14.9c-10 3.8-21.4 6.4-34.4 7.9s-28.5 2.3-46.4 2.3h-30v112.3h-54.7V7.6h0zm95.1 334.6c16 0 28.6-1.1 37.8-3.4s17.6-6.1 25.1-11.6c18.4-14.5 27.7-37.7 27.7-69.6 0-54.9-29.7-82.3-89.1-82.3h-41.9v166.9h40.4zM553.1 7.6h126.5c38.4 0 66.9 9 85.3 27 5.4 5.5 10.1 11.3 13.8 17.2 3.8 6 6.8 13.1 9 21.3 2.3 8.3 3.9 17.8 4.9 28.5s1.5 23.3 1.5 37.8c0 22-.5 39.6-1.5 53.2-1 13.4-2.9 24.6-5.6 33.4-2.7 8.7-6.9 15.6-12.3 20.6-5.5 5-12.7 10-21.7 14.9 14.5 7 24.8 16.7 31.1 29.2 6.2 12.5 9.4 29.7 9.4 51.7v164.7h-54.7V358.2c0-15.5-1-27-3-34.4-2-7.5-5.7-14.7-11.3-21.7-6-7.5-13.3-12.7-22.1-15.7s-20.3-4.5-34.8-4.5h-59.8v225.3h-54.7V7.6zm136.9 226c16.9 0 29-2.3 36.3-6.8 7.2-4.5 10.9-11.7 10.9-21.7s-3.5-18.7-10.5-23.2-18.7-6.8-35.1-6.8h-83.8v58.3h82.3 0zM824.7 167c0-17.9.3-32.7.8-44.2s1.6-21.2 3.4-29.2 4.1-14.9 7.1-20.9 7-12.5 11.9-19.4c11.9-16.4 27.2-29.4 45.7-38.9C912 4.9 931.6.2 951.9.2s47.3 6.5 68.5 19.4c21.2 13 37 30.2 47.5 51.7 2.5 5.5 4.6 10.7 6.4 15.7s3 10.9 3.8 17.6c.8 6.8 1.2 15.1 1.5 25.1s.4 22.5.4 37.4v180.4c0 17.9-.3 32.7-.8 44.2s-1.6 21.2-3.4 29.2-4.1 14.9-7.1 20.9-7 12.5-11.9 19.4c-11.9 16.4-27.2 29.4-45.7 38.9S973 514.3 952 514.3s-46.7-6.5-68.1-19.4c-21.4-13-37.2-30.2-47.2-51.7-2.5-5.4-4.6-10.7-6.4-15.7s-3-10.9-3.8-17.6c-.8-6.8-1.2-15.1-1.5-25.1s-.4-22.5-.4-37.4V167h0zm128 6.8c-11.5 0-22.4 2.3-32.6 6.8s-19.1 10.5-26.6 17.9-13.4 16.3-17.9 26.6c-4.5 10.2-6.8 21-6.8 32.6s2.2 23.1 6.4 33.4c4.2 10.2 10.1 19.3 17.6 27s16.3 13.8 26.6 18.3c10.2 4.5 21 6.8 32.6 6.8s21.4-2.3 31.5-6.8c10-4.5 18.7-10.6 26.2-18.3s13.4-16.7 17.9-27c4.5-10.2 6.8-21 6.8-32.6s-2.2-22.4-6.4-32.6-10.1-19.2-17.6-27c-7.5-7.7-16.3-13.8-26.2-18.3-10-4.5-20.5-6.8-31.5-6.8z"/><use href="#B"/><path d="M146.3 568.7c4.6 6.1 6.9 13.9 6.9 23.4s-2.6 18.9-7.8 25.6c-6.1 8-14.8 12-26.2 12s-19-3.5-25-10.5c-5.4-6.8-8.1-15.3-8.1-25.6s2.3-17.3 7-24c5.9-8.5 14.7-12.8 26.4-12.8s21.2 3.9 27.1 11.7h-.2zm-8.2 44c3.7-5.9 5.5-12.7 5.5-20.4s-2.2-14.7-6.4-19.6c-4.2-5-10.1-7.4-17.4-7.4s-13 2.4-17.5 7.3-6.8 12.1-6.8 21.7 2 14.1 5.8 19.4c3.9 5.3 10.1 7.9 18.8 7.9s14.2-2.9 17.8-8.8h0zm26.9-53.8h47.8v8.5h-38.5v20.9h33.8v8.2h-33.8v31.4H165v-69zm58.5 0h47.8v8.5h-38.5v20.9h33.8v8.2h-33.8v31.4h-9.3v-69zm58.6 0h50.1v8.5h-41v20.9h37.9v8h-37.9v23.4h41.6v8.2h-50.7v-69zm63.9 0h50.1v8.5h-41v20.9H393v8h-37.9v23.4h41.6v8.2H346v-69z"/><use href="#B" x="415.3"/><path d="M561.7 568.7c4.6 6.1 6.9 13.9 6.9 23.4s-2.6 18.9-7.8 25.6c-6.1 8-14.8 12-26.2 12s-19-3.5-25-10.5c-5.4-6.8-8.1-15.3-8.1-25.6s2.3-17.3 7-24c5.9-8.5 14.7-12.8 26.4-12.8s21.2 3.9 27.1 11.7h-.2zm-8.3 44c3.7-5.9 5.5-12.7 5.5-20.4s-2.2-14.7-6.4-19.6c-4.2-5-10.1-7.4-17.4-7.4s-13 2.4-17.5 7.3-6.8 12.1-6.8 21.7 2 14.1 5.8 19.4c3.9 5.3 10.1 7.9 18.8 7.9s14.2-2.9 17.8-8.8h0z"/></g><defs ><path id="B" d="M69.1 563.9c4.8 4.6 7.4 9.9 7.9 15.7h-9.1c-1-4.4-3-8-6.1-10.5s-7.2-3.9-12.8-3.9-12 2.3-16.2 7.1-6.2 12.1-6.2 22 1.9 14.7 5.5 19.6c3.7 5.1 9.2 7.5 16.6 7.5s11.9-2.6 15.4-7.9c1.9-2.8 3.3-6.5 4.2-11h9.1c-.8 7.2-3.5 13.3-8 18.2-5.4 5.9-12.7 8.8-21.9 8.8s-14.6-2.4-19.9-7.3c-7-6.4-10.6-16.3-10.6-29.8s2.6-18.5 8-25.1c5.7-7 13.7-10.6 23.8-10.6s15.3 2.3 20.1 6.9v.2z"/></defs></svg>
