<svg xmlns="http://www.w3.org/2000/svg" viewBox="0 0 777.25 511.56" class="h-100 object-contain white-navbar-logo"><polygon points="0 0 71.54 0 108.45 319.56 146.61 0 209.37 0 246.47 319.55 283.54 0 355.07 0 284.99 511.56 210.23 511.56 177.64 217.56 142.32 511.56 71.68 511.56 0 0" fill-rule="evenodd"></polygon><path d="M777.25,236.94H713.69L746.14,0H674.61L647.13,236.94H628L600.44,0H537.68L509.39,236.94H490L462.61,0H391.07l33.2,236.94H360v54.11h71.88l30.9,220.51H533.4l26.48-220.51h17L601.3,511.56h74.77l30.2-220.51h71ZM499.52,319.55l-3.29-28.5h6.69Zm66.86-82.61,2.33-19.38,2.15,19.38Zm71.16,82.61-3.31-28.5h6.62Z" fill-rule="evenodd"></path></svg>